M48
; DRILL file KiCad 10.0.0 date 2026-03-25T22:01:15
; FORMAT={-:-/ absolute / metric / decimal}
; #@! TF.CreationDate,2026-03-25T22:01:15+05:00
; #@! TF.GenerationSoftware,Kicad,Pcbnew,10.0.0
; #@! TF.FileFunction,Plated,1,2,PTH
FMAT,2
METRIC
; #@! TA.AperFunction,Plated,PTH,ViaDrill
T1C0.300
; #@! TA.AperFunction,Plated,PTH,ComponentDrill
T2C0.750
; #@! TA.AperFunction,Plated,PTH,ComponentDrill
T3C0.800
; #@! TA.AperFunction,Plated,PTH,ComponentDrill
T4C0.889
; #@! TA.AperFunction,Plated,PTH,ComponentDrill
T5C0.900
; #@! TA.AperFunction,Plated,PTH,ComponentDrill
T6C1.000
; #@! TA.AperFunction,Plated,PTH,ComponentDrill
T7C1.100
; #@! TA.AperFunction,Plated,PTH,ComponentDrill
T8C1.300
; #@! TA.AperFunction,Plated,PTH,ComponentDrill
T9C1.600
; #@! TA.AperFunction,Plated,PTH,ComponentDrill
T10C1.830
%
G90
G05
T1
X149.05Y-108.05
X150.65Y-108.05
T2
X124.58Y-117.91
X125.85Y-117.91
X127.12Y-117.91
X142.105Y-118.485
X143.375Y-118.485
X144.645Y-118.485
X151.54Y-111.025
X152.81Y-111.025
X154.08Y-111.025
T3
X117.975Y-122.295
X117.975Y-132.455
X118.6Y-75.882
X118.6Y-78.382
X122.0Y-122.22
X122.0Y-132.38
X124.15Y-74.675
X124.15Y-79.675
X125.875Y-122.32
X125.875Y-132.48
X129.85Y-122.345
X129.85Y-132.505
X135.675Y-122.47
X135.675Y-132.63
X139.75Y-122.595
X139.75Y-132.755
X143.525Y-122.57
X143.525Y-132.73
X147.225Y-122.57
X147.225Y-132.73
X152.73Y-115.645
X152.73Y-125.805
X172.195Y-111.325
X182.355Y-111.325
X190.475Y-97.557
X190.475Y-100.057
X192.17Y-86.825
X195.85Y-108.65
X195.925Y-113.7
X200.85Y-108.65
X200.925Y-113.7
X202.33Y-86.825
T4
X119.37Y-82.495
X119.37Y-105.355
X121.91Y-82.495
X121.91Y-105.355
X124.45Y-82.495
X124.45Y-105.355
X126.99Y-82.495
X126.99Y-105.355
X129.53Y-82.495
X129.53Y-105.355
X132.07Y-82.495
X132.07Y-105.355
X134.61Y-82.495
X134.61Y-105.355
X137.15Y-82.495
X137.15Y-105.355
X139.69Y-82.495
X139.69Y-105.355
X142.23Y-82.495
X142.23Y-105.355
X144.77Y-82.495
X144.77Y-105.355
X147.31Y-82.495
X147.31Y-105.355
X149.85Y-82.495
X149.85Y-105.355
X152.39Y-82.495
X152.39Y-105.355
X154.93Y-82.495
X154.93Y-105.355
T5
X117.11Y-117.275
X119.65Y-117.275
X134.825Y-117.4
X137.365Y-117.4
X175.61Y-118.5
X178.15Y-118.5
X207.4Y-86.81
X207.4Y-89.35
T6
X158.1Y-117.575
X170.1Y-117.575
T7
X158.545Y-111.275
X168.705Y-111.275
X183.075Y-129.85
X183.075Y-140.05
X205.075Y-108.61
X205.075Y-111.15
X205.075Y-113.69
T8
X158.1Y-129.775
X164.15Y-115.625
X170.15Y-129.825
T9
X180.535Y-134.95
X195.735Y-126.05
X198.275Y-143.85
X205.875Y-143.85
T10
X120.475Y-138.427
X128.735Y-138.427
X136.995Y-138.427
X145.255Y-138.427
X153.515Y-138.427
X161.775Y-138.427
T6
G00X196.85Y-99.55
M15
G01X196.85Y-97.55
M16
G05
G00X200.85Y-93.85
M15
G01X198.85Y-93.85
M16
G05
G00X202.85Y-99.55
M15
G01X202.85Y-97.55
M16
G05
M30
