M48
; DRILL file KiCad 10.0.0 date 2026-03-25T22:07:01
; FORMAT={-:-/ absolute / metric / decimal}
; #@! TF.CreationDate,2026-03-25T22:07:01+05:00
; #@! TF.GenerationSoftware,Kicad,Pcbnew,10.0.0
; #@! TF.FileFunction,Plated,1,2,PTH
FMAT,2
METRIC
; #@! TA.AperFunction,Plated,PTH,ViaDrill
T1C0.300
; #@! TA.AperFunction,Plated,PTH,ComponentDrill
T2C0.600
; #@! TA.AperFunction,Plated,PTH,ComponentDrill
T3C0.750
; #@! TA.AperFunction,Plated,PTH,ComponentDrill
T4C0.800
; #@! TA.AperFunction,Plated,PTH,ComponentDrill
T5C0.900
; #@! TA.AperFunction,Plated,PTH,ComponentDrill
T6C1.000
; #@! TA.AperFunction,Plated,PTH,ComponentDrill
T7C1.100
; #@! TA.AperFunction,Plated,PTH,ComponentDrill
T8C1.300
; #@! TA.AperFunction,Plated,PTH,ComponentDrill
T9C1.600
%
G90
G05
T1
X142.8Y-105.725
X142.8Y-107.3
X142.85Y-108.775
X152.2Y-98.25
X153.548Y-88.95
X155.302Y-88.875
X160.975Y-102.175
X169.936Y-58.386
X172.7Y-58.35
X204.5Y-97.707
X204.525Y-96.403
X207.098Y-87.075
X208.602Y-86.175
X220.025Y-88.375
X225.525Y-75.125
X228.925Y-71.675
T2
X180.45Y-101.013
X180.45Y-103.013
T3
X149.63Y-96.96
X150.9Y-96.96
X152.17Y-96.96
X177.43Y-76.285
X178.7Y-76.285
X179.97Y-76.285
X192.83Y-75.985
X194.1Y-75.985
X195.37Y-75.985
X209.235Y-75.675
X210.505Y-75.675
X211.775Y-75.675
X225.175Y-65.575
X225.175Y-66.845
X225.175Y-68.115
T4
X135.975Y-90.795
X135.975Y-100.955
X154.425Y-107.047
X154.425Y-110.547
X156.325Y-92.395
X156.325Y-102.555
X160.835Y-87.99
X160.835Y-90.49
X161.0Y-93.1
X161.0Y-100.72
X163.54Y-93.1
X163.54Y-100.72
X163.68Y-103.85
X165.85Y-79.853
X165.85Y-84.853
X166.08Y-93.1
X166.08Y-100.72
X168.62Y-93.1
X168.62Y-100.72
X168.745Y-109.9
X172.95Y-74.72
X172.95Y-84.88
X173.46Y-90.71
X173.46Y-100.87
X173.84Y-103.85
X177.575Y-80.345
X177.575Y-90.505
X178.905Y-109.9
X182.025Y-88.105
X182.025Y-98.265
X183.02Y-84.25
X185.455Y-94.645
X185.455Y-97.185
X185.455Y-99.725
X185.455Y-102.265
X193.075Y-94.645
X193.075Y-97.185
X193.075Y-99.725
X193.075Y-102.265
X193.18Y-84.25
X195.8Y-94.365
X198.3Y-94.365
X198.82Y-106.175
X199.575Y-84.453
X199.575Y-89.453
X201.27Y-94.515
X201.27Y-97.055
X201.27Y-99.595
X201.27Y-102.135
X205.825Y-74.145
X205.825Y-84.305
X208.89Y-94.515
X208.89Y-97.055
X208.89Y-99.595
X208.89Y-102.135
X208.98Y-106.175
X209.65Y-79.27
X209.65Y-89.43
X211.45Y-94.425
X211.975Y-97.22
X211.975Y-107.38
X213.95Y-94.425
X214.82Y-58.2
X214.845Y-61.675
X218.845Y-106.145
X221.345Y-106.145
X224.27Y-106.095
X224.98Y-58.2
X225.005Y-61.675
X226.77Y-106.095
T5
X142.11Y-97.05
X144.65Y-97.05
X162.86Y-109.8
X165.4Y-109.8
X185.75Y-77.01
X185.75Y-79.55
X199.26Y-76.7
X201.8Y-76.7
X217.025Y-67.025
X219.565Y-67.025
T6
X165.35Y-64.45
X177.35Y-64.45
X182.475Y-64.4
X194.475Y-64.4
X199.3Y-64.475
X211.3Y-64.475
X216.175Y-89.075
X228.175Y-89.075
T7
X140.845Y-91.725
X142.475Y-82.75
X151.005Y-91.725
X152.675Y-82.75
X166.195Y-70.4
X176.355Y-70.4
X183.245Y-70.8
X193.405Y-70.8
X200.045Y-70.375
X210.205Y-70.375
X216.97Y-95.525
X220.32Y-103.05
X222.86Y-103.05
X225.4Y-103.05
X227.13Y-95.525
T8
X138.55Y-51.65
X143.55Y-51.65
X152.875Y-51.775
X157.875Y-51.775
X165.3Y-52.2
X171.3Y-66.4
X177.35Y-52.25
X182.425Y-52.15
X188.425Y-66.35
X194.475Y-52.2
X199.25Y-52.225
X205.25Y-66.425
X211.3Y-52.275
X216.125Y-76.825
X218.875Y-51.925
X222.125Y-91.025
X223.875Y-51.925
X228.175Y-76.875
T9
X138.675Y-70.09
X147.575Y-85.29
X156.475Y-59.95
X156.475Y-67.55
T6
G00X141.25Y-106.2
M15
G01X141.25Y-108.4
M16
G05
G00X145.75Y-112.1
M15
G01X143.55Y-112.1
M16
G05
G00X147.55Y-106.0
M15
G01X147.55Y-108.6
M16
G05
M30
