M48
; DRILL file KiCad 10.0.0 date 2026-03-25T22:11:31
; FORMAT={-:-/ absolute / metric / decimal}
; #@! TF.CreationDate,2026-03-25T22:11:31+05:00
; #@! TF.GenerationSoftware,Kicad,Pcbnew,10.0.0
; #@! TF.FileFunction,Plated,1,2,PTH
FMAT,2
METRIC
; #@! TA.AperFunction,Plated,PTH,ViaDrill
T1C0.300
; #@! TA.AperFunction,Plated,PTH,ComponentDrill
T2C0.510
; #@! TA.AperFunction,Plated,PTH,ComponentDrill
T3C0.600
; #@! TA.AperFunction,Plated,PTH,ComponentDrill
T4C0.800
; #@! TA.AperFunction,Plated,PTH,ComponentDrill
T5C1.000
%
G90
G05
T1
X109.35Y-76.75
X109.35Y-88.1
X111.3Y-64.6
X112.9Y-89.4
X113.0Y-75.4
X115.3Y-79.25
X115.35Y-85.75
X115.55Y-86.75
X115.6Y-78.2
X116.05Y-83.973
X117.0Y-85.8
X117.35Y-99.9
X117.35Y-102.85
X118.25Y-77.25
X118.55Y-82.15
X119.4Y-73.1
X120.05Y-83.65
X120.4Y-96.5
X121.55Y-82.25
X122.6Y-73.2
X122.85Y-96.55
X125.1Y-64.3
X130.95Y-78.35
X131.85Y-70.45
X133.25Y-71.95
X133.4Y-78.4
X134.75Y-70.5
X134.8Y-77.25
X158.0Y-66.95
X189.4Y-93.2
X192.55Y-93.75
X193.35Y-99.3
X194.9Y-93.8
X197.65Y-62.3
X197.65Y-67.45
X197.9Y-64.85
X202.05Y-64.35
X202.05Y-65.45
T2
X123.692Y-83.47
X123.692Y-86.01
X124.962Y-83.47
X124.962Y-86.01
X126.232Y-83.47
X126.232Y-86.01
T4
X120.05Y-80.2
X120.05Y-82.2
X133.25Y-68.45
X133.25Y-70.45
X155.95Y-65.4
X157.95Y-65.4
X159.95Y-65.4
X161.95Y-65.4
T5
X111.3Y-66.5
X118.9Y-66.5
T3
G00X109.775Y-78.13
M15
G01X108.975Y-78.13
M16
G05
G00X109.775Y-86.77
M15
G01X108.975Y-86.77
M16
G05
G00X114.105Y-78.13
M15
G01X113.005Y-78.13
M16
G05
G00X114.105Y-86.77
M15
G01X113.005Y-86.77
M16
G05
M30
