M48
; DRILL file KiCad 10.0.0 date 2026-03-25T22:44:10
; FORMAT={-:-/ absolute / metric / decimal}
; #@! TF.CreationDate,2026-03-25T22:44:10+05:00
; #@! TF.GenerationSoftware,Kicad,Pcbnew,10.0.0
; #@! TF.FileFunction,Plated,1,4,PTH
FMAT,2
METRIC
; #@! TA.AperFunction,Plated,PTH,ComponentDrill
T1C0.200
; #@! TA.AperFunction,Plated,PTH,ViaDrill
T2C0.300
; #@! TA.AperFunction,Plated,PTH,ComponentDrill
T3C0.500
; #@! TA.AperFunction,Plated,PTH,ComponentDrill
T4C0.600
; #@! TA.AperFunction,Plated,PTH,ComponentDrill
T5C1.000
; #@! TA.AperFunction,Plated,PTH,ComponentDrill
T6C2.200
%
G90
G05
T1
X149.35Y-80.25
X149.35Y-81.65
X150.05Y-79.55
X150.05Y-80.95
X150.05Y-82.35
X150.75Y-80.25
X150.75Y-81.65
X151.45Y-79.55
X151.45Y-80.95
X151.45Y-82.35
X152.15Y-80.25
X152.15Y-81.65
T2
X121.2Y-92.5
X122.7Y-95.6
X122.7Y-107.1
X124.05Y-88.55
X125.0Y-103.7
X125.45Y-100.2
X125.7Y-99.1
X125.9Y-101.7
X126.4Y-109.15
X126.9Y-95.6
X126.9Y-107.1
X127.0Y-72.6
X127.6Y-80.4
X127.6Y-85.8
X128.2Y-88.7
X128.3Y-75.4
X128.6Y-77.9
X128.9Y-98.1
X128.9Y-104.7
X130.0Y-72.6
X130.5Y-96.6
X130.8Y-110.65
X131.0Y-102.05
X131.05Y-98.85
X131.35Y-86.35
X131.6Y-78.7
X132.3Y-89.1
X132.4Y-95.6
X132.45Y-75.45
X133.0Y-72.6
X133.45Y-91.2
X133.9Y-96.6
X133.9Y-104.9
X134.45Y-92.5
X134.9Y-102.45
X135.1Y-81.4
X135.75Y-86.25
X136.0Y-72.6
X136.15Y-110.55
X137.0Y-96.1
X137.1Y-76.3
X137.2Y-74.0
X137.2Y-83.7
X137.25Y-88.35
X139.0Y-72.6
X139.725Y-81.582
X140.5Y-73.8
X140.5Y-75.0
X140.55Y-79.65
X141.2Y-86.55
X141.4Y-93.05
X142.0Y-72.6
X142.0Y-75.9
X142.0Y-110.8
X143.7Y-96.65
X144.35Y-108.5
X144.65Y-93.4
X145.0Y-72.6
X146.75Y-107.25
X146.8Y-109.75
X148.0Y-72.6
X149.5Y-107.2
X149.6Y-109.55
X151.0Y-72.6
X151.6Y-92.55
X151.85Y-107.3
X151.95Y-109.65
X152.95Y-92.55
X153.4Y-72.6
X153.85Y-105.6
X154.15Y-92.6
X154.65Y-108.65
X156.1Y-112.0
X156.4Y-72.6
X158.1Y-107.4
X159.15Y-112.0
X159.2Y-104.3
X159.4Y-72.6
X160.25Y-92.65
X161.7Y-101.7
X162.4Y-72.6
X162.5Y-73.2
X163.0Y-87.2
X163.05Y-93.05
X163.4Y-90.8
X164.2Y-98.8
X164.3Y-110.9
X165.0Y-102.8
X165.4Y-72.6
X165.9Y-84.5
X166.1Y-104.65
X166.75Y-79.55
X166.85Y-91.6
X168.4Y-72.6
X169.7Y-93.0
X170.1Y-111.0
X170.85Y-104.9
X171.35Y-88.45
X171.4Y-72.6
X171.9Y-81.7
X173.9Y-110.15
X174.05Y-102.2
X174.4Y-72.6
X174.5Y-87.15
X176.45Y-89.7
X177.35Y-98.1
X177.6Y-105.5
X177.8Y-95.6
X179.15Y-102.65
T3
X124.8Y-81.125
X124.8Y-82.375
X124.8Y-83.625
X124.8Y-84.875
T5
X147.375Y-98.235
X147.375Y-100.775
X149.915Y-98.235
X149.915Y-100.775
X152.455Y-98.235
X152.455Y-100.775
X154.995Y-98.235
X154.995Y-100.775
X157.535Y-98.235
X157.535Y-100.775
X179.5Y-81.175
X179.5Y-83.715
X179.5Y-86.255
X179.5Y-93.06
X179.5Y-95.6
X179.5Y-98.14
T6
X121.7Y-73.8
X122.0Y-111.3
X179.6Y-74.4
X179.8Y-111.1
T4
G00X123.125Y-97.08
M15
G01X122.325Y-97.08
M16
G05
G00X123.125Y-105.72
M15
G01X122.325Y-105.72
M16
G05
G00X127.455Y-97.08
M15
G01X126.355Y-97.08
M16
G05
G00X127.455Y-105.72
M15
G01X126.355Y-105.72
M16
G05
M30
