M48
; DRILL file KiCad 10.0.0 date 2026-03-25T22:26:53
; FORMAT={-:-/ absolute / metric / decimal}
; #@! TF.CreationDate,2026-03-25T22:26:53+05:00
; #@! TF.GenerationSoftware,Kicad,Pcbnew,10.0.0
; #@! TF.FileFunction,Plated,1,4,PTH
FMAT,2
METRIC
; #@! TA.AperFunction,Plated,PTH,ComponentDrill
T1C0.200
; #@! TA.AperFunction,Plated,PTH,ViaDrill
T2C0.300
; #@! TA.AperFunction,Plated,PTH,ComponentDrill
T3C0.500
; #@! TA.AperFunction,Plated,PTH,ComponentDrill
T4C0.600
; #@! TA.AperFunction,Plated,PTH,ComponentDrill
T5C1.000
; #@! TA.AperFunction,Plated,PTH,ComponentDrill
T6C1.118
; #@! TA.AperFunction,Plated,PTH,ComponentDrill
T7C1.300
; #@! TA.AperFunction,Plated,PTH,ComponentDrill
T8C1.500
%
G90
G05
T1
X114.95Y-66.98
X114.95Y-68.38
X115.65Y-66.28
X115.65Y-67.68
X115.65Y-69.08
X116.325Y-66.98
X116.325Y-68.38
X117.05Y-66.28
X117.05Y-67.68
X117.05Y-69.08
X117.75Y-66.98
X117.75Y-68.38
T2
X91.0Y-59.65
X94.0Y-59.65
X94.1Y-82.35
X95.45Y-83.85
X97.0Y-59.65
X100.0Y-59.65
X102.25Y-60.5
X103.05Y-112.1
X103.25Y-108.5
X103.6Y-63.75
X103.65Y-59.5
X104.2Y-96.55
X104.35Y-78.3
X105.7Y-62.65
X105.7Y-73.381
X105.7Y-92.7
X105.75Y-61.3
X105.9Y-70.841
X105.9Y-100.9
X106.225Y-74.825
X106.45Y-110.75
X106.9Y-94.45
X107.3Y-107.55
X107.6Y-60.15
X107.65Y-65.05
X108.79Y-99.037
X108.9Y-115.25
X109.45Y-114.05
X110.35Y-85.8
X110.9Y-107.1
X111.1Y-99.7
X111.65Y-101.5
X111.945Y-110.795
X112.0Y-59.65
X113.55Y-92.75
X113.9Y-99.7
X114.5Y-108.55
X114.7Y-112.05
X114.75Y-98.3
X115.0Y-59.65
X115.95Y-101.5
X116.3Y-94.75
X117.073Y-81.073
X118.0Y-59.65
X118.05Y-96.7
X120.35Y-106.5
X121.0Y-59.65
X121.3Y-105.4
X122.25Y-100.65
X123.2Y-110.75
X124.0Y-59.65
X124.6Y-106.7
X124.9Y-104.4
X127.0Y-59.65
X127.6Y-116.0
X127.65Y-107.8
X127.65Y-109.45
X127.65Y-111.3
X127.65Y-113.05
X128.15Y-102.9
X129.1Y-65.05
X130.0Y-59.65
X131.2Y-67.9
X133.0Y-59.65
X136.0Y-59.65
X136.8Y-63.8
X137.2Y-65.0
X139.0Y-59.65
X139.6Y-67.0
X140.9Y-106.9
X142.0Y-59.65
X142.6Y-67.0
X143.55Y-65.05
X144.05Y-63.2
X145.0Y-59.65
X145.05Y-61.15
X145.1Y-66.6
X148.0Y-59.65
X149.1Y-68.2
X149.1Y-73.5
X150.65Y-63.85
X153.2Y-77.7
X159.5Y-67.2
X159.7Y-73.0
T3
X151.925Y-63.9
X153.175Y-63.9
X154.425Y-63.9
X155.675Y-63.9
T5
X97.625Y-67.125
X97.625Y-69.665
X97.625Y-72.205
X97.625Y-74.745
X97.625Y-77.285
X100.165Y-67.125
X100.165Y-69.665
X100.165Y-72.205
X100.165Y-74.745
X100.165Y-77.285
X140.9Y-109.868
X140.9Y-114.868
T6
X137.29Y-74.97
X137.29Y-77.51
X137.29Y-80.05
X137.29Y-82.59
X137.29Y-85.13
X137.29Y-87.67
X137.29Y-90.21
X137.29Y-92.75
X137.29Y-95.29
X137.29Y-97.83
X144.91Y-74.97
X144.91Y-77.51
X144.91Y-80.05
X144.91Y-82.59
X144.91Y-85.13
X144.91Y-87.67
X144.91Y-90.21
X144.91Y-92.75
X144.91Y-95.29
X144.91Y-97.83
T7
X82.55Y-78.95
X82.55Y-94.21
X82.55Y-99.25
X82.55Y-104.29
X82.6Y-112.372
X87.6Y-112.372
X90.05Y-78.95
X90.05Y-94.21
X90.05Y-99.25
X90.05Y-104.29
X92.6Y-112.372
X166.8Y-65.86
X166.8Y-70.94
X166.8Y-76.02
X166.8Y-81.1
X166.8Y-86.18
X166.8Y-91.26
X166.8Y-96.34
X166.8Y-101.42
X166.8Y-107.52
X166.8Y-112.6
T8
X152.9Y-93.7
X152.9Y-108.7
T4
G00X104.53Y-112.145
M15
G01X104.53Y-113.245
M16
G05
G00X104.53Y-116.475
M15
G01X104.53Y-117.275
M16
G05
G00X113.17Y-112.145
M15
G01X113.17Y-113.245
M16
G05
G00X113.17Y-116.475
M15
G01X113.17Y-117.275
M16
G05
M30
