M48
; DRILL file KiCad 10.0.0 date 2026-03-25T22:23:04
; FORMAT={-:-/ absolute / metric / decimal}
; #@! TF.CreationDate,2026-03-25T22:23:04+05:00
; #@! TF.GenerationSoftware,Kicad,Pcbnew,10.0.0
; #@! TF.FileFunction,Plated,1,2,PTH
FMAT,2
METRIC
; #@! TA.AperFunction,Plated,PTH,ViaDrill
T1C0.300
; #@! TA.AperFunction,Plated,PTH,ComponentDrill
T2C0.500
; #@! TA.AperFunction,Plated,PTH,ComponentDrill
T3C0.600
; #@! TA.AperFunction,Plated,PTH,ComponentDrill
T4C3.200
%
G90
G05
T1
X58.625Y-93.2
X59.925Y-92.348
X62.3Y-91.05
X62.3Y-97.475
X63.5Y-89.025
X64.575Y-94.75
X65.475Y-87.575
X65.6Y-100.4
X67.125Y-87.575
X69.3Y-97.075
X69.725Y-88.825
X72.05Y-94.17
X72.3Y-90.1
X72.625Y-100.0
X72.625Y-101.275
X72.625Y-102.7
X72.875Y-98.5
X72.9Y-86.5
X73.162Y-96.875
X73.225Y-103.675
X73.875Y-104.65
X74.075Y-86.5
X74.263Y-97.85
X74.5Y-99.5
X75.275Y-100.925
X75.7Y-105.425
X75.975Y-88.6
X76.075Y-99.375
X77.025Y-96.825
X77.625Y-100.0
X77.7Y-105.7
X78.75Y-89.875
X79.3Y-96.85
X79.4Y-105.7
X80.25Y-97.75
X80.35Y-105.1
X80.825Y-95.2
X81.375Y-105.725
X82.0Y-91.9
X82.7Y-104.725
X82.875Y-105.5
X83.325Y-87.675
X83.725Y-104.65
X84.05Y-100.425
X84.125Y-101.825
X84.125Y-103.175
X84.375Y-86.625
X84.45Y-88.725
X86.225Y-94.3
X87.548Y-104.983
X87.55Y-86.025
X87.775Y-107.2
X88.525Y-85.0
X89.075Y-104.625
X91.35Y-96.65
X91.9Y-102.95
X92.0Y-105.675
X92.1Y-103.875
X94.175Y-100.95
X95.775Y-98.475
X97.475Y-94.637
X104.825Y-94.075
X105.275Y-96.3
T2
X55.325Y-84.3
X55.35Y-104.3
X56.028Y-82.603
X56.028Y-85.997
X56.053Y-102.603
X56.053Y-105.997
X57.725Y-81.9
X57.725Y-86.7
X57.75Y-101.9
X57.75Y-106.7
X59.422Y-82.603
X59.422Y-85.997
X59.447Y-102.603
X59.447Y-105.997
X60.125Y-84.3
X60.15Y-104.3
X100.372Y-84.572
X100.375Y-104.5
X101.075Y-82.875
X101.075Y-86.269
X101.078Y-102.803
X101.078Y-106.197
X102.772Y-82.172
X102.772Y-86.972
X102.775Y-102.1
X102.775Y-106.9
X104.469Y-82.875
X104.469Y-86.269
X104.472Y-102.803
X104.472Y-106.197
X105.172Y-84.572
X105.175Y-104.5
T4
X57.725Y-84.3
X57.75Y-104.3
X102.772Y-84.572
X102.775Y-104.5
T3
G00X56.825Y-89.93
M15
G01X56.025Y-89.93
M16
G05
G00X56.825Y-98.57
M15
G01X56.025Y-98.57
M16
G05
G00X61.155Y-89.93
M15
G01X60.055Y-89.93
M16
G05
G00X61.155Y-98.57
M15
G01X60.055Y-98.57
M16
G05
M30
