M48
; DRILL file KiCad 10.0.0 date 2026-03-25T22:32:35
; FORMAT={-:-/ absolute / metric / decimal}
; #@! TF.CreationDate,2026-03-25T22:32:35+05:00
; #@! TF.GenerationSoftware,Kicad,Pcbnew,10.0.0
; #@! TF.FileFunction,Plated,1,4,PTH
FMAT,2
METRIC
; #@! TA.AperFunction,Plated,PTH,ViaDrill
T1C0.300
; #@! TA.AperFunction,Plated,PTH,ViaDrill
T2C0.400
; #@! TA.AperFunction,Plated,PTH,ComponentDrill
T3C0.500
; #@! TA.AperFunction,Plated,PTH,ComponentDrill
T4C0.600
; #@! TA.AperFunction,Plated,PTH,ComponentDrill
T5C2.200
%
G90
G05
T1
X150.5Y-78.7
X151.25Y-77.2
T2
X145.6Y-72.9
X145.7Y-71.3
X145.7Y-74.5
X145.7Y-77.0
X145.7Y-79.5
X145.7Y-81.2
X145.7Y-83.7
X145.7Y-86.2
X145.7Y-87.9
X145.7Y-90.4
X145.7Y-92.9
X145.9Y-97.6
X146.0Y-96.4
X147.35Y-86.2
X147.35Y-88.7
X147.5Y-76.95
X147.5Y-79.45
X148.1Y-72.9
X148.2Y-71.3
X148.4Y-97.6
X148.5Y-96.4
X148.7Y-90.725
X149.7Y-85.9
X149.8Y-87.7
X150.6Y-72.9
X150.7Y-71.3
X150.9Y-97.6
X151.0Y-96.4
X151.25Y-84.4
X152.15Y-89.35
X152.6Y-84.4
X153.1Y-72.9
X153.2Y-71.3
X153.45Y-90.65
X153.6Y-84.3
X154.0Y-81.15
X154.15Y-75.8
X154.3Y-89.25
X154.6Y-86.8
X155.0Y-74.4
X155.0Y-83.0
X155.1Y-72.9
X155.7Y-71.3
X155.85Y-90.55
X156.0Y-81.1
X156.64Y-82.96
X156.8Y-89.15
X157.8Y-76.7
X158.2Y-90.55
X158.85Y-89.35
X159.95Y-90.5
X160.5Y-71.3
X161.0Y-74.4
X161.0Y-75.9
X161.1Y-72.9
X161.1Y-77.4
X161.3Y-80.6
X161.6Y-96.15
X161.6Y-97.6
X161.95Y-90.5
X162.2Y-88.5
X163.0Y-71.3
X163.1Y-89.45
X163.5Y-74.4
X163.5Y-75.9
X163.5Y-91.45
X163.6Y-72.9
X163.6Y-77.4
X164.1Y-96.15
X164.1Y-97.6
X164.8Y-90.1
X165.5Y-71.3
X165.6Y-74.4
X165.6Y-75.9
X165.7Y-77.4
X165.9Y-89.1
X166.1Y-72.9
X166.1Y-91.6
X166.2Y-97.6
X166.6Y-96.15
X166.8Y-87.1
X167.3Y-81.5
X167.5Y-74.4
X167.5Y-75.9
X167.5Y-77.4
X167.8Y-88.6
X168.0Y-71.3
X168.4Y-83.1
X168.5Y-90.6
X168.6Y-72.9
X168.7Y-97.6
X169.1Y-76.7
X169.1Y-96.15
X169.2Y-78.1
X170.4Y-74.4
X170.5Y-71.3
X170.65Y-72.85
X171.1Y-96.2
X171.2Y-97.6
X171.6Y-81.85
X171.6Y-83.85
X171.6Y-85.85
X171.85Y-76.85
X172.7Y-71.3
X172.7Y-72.9
X172.7Y-74.4
X173.1Y-88.75
X173.2Y-89.8
X173.55Y-92.85
X173.6Y-81.85
X173.6Y-83.85
X173.6Y-85.85
X173.6Y-96.2
X173.65Y-97.55
X175.1Y-88.35
X175.2Y-71.3
X175.2Y-72.9
X175.2Y-74.4
X175.426Y-91.476
X175.5Y-97.6
X175.6Y-81.85
X175.6Y-83.85
X175.6Y-85.85
X176.1Y-96.2
X177.7Y-71.3
X177.7Y-72.9
X177.7Y-74.4
X177.9Y-95.9
X178.0Y-97.6
X178.7Y-78.2
X178.7Y-80.7
X178.9Y-89.8
X178.9Y-91.8
X179.6Y-83.7
X179.7Y-84.7
X179.95Y-85.95
X180.0Y-97.7
X180.2Y-71.3
X180.2Y-72.9
X180.2Y-74.4
X180.75Y-81.55
X180.9Y-89.75
X180.9Y-91.75
X181.0Y-87.15
X181.9Y-84.6
X181.95Y-85.95
X182.2Y-88.7
X182.5Y-97.7
X182.7Y-71.3
X182.7Y-72.9
X182.7Y-74.4
X182.8Y-89.75
X182.8Y-91.75
X182.9Y-76.3
X182.9Y-79.8
X183.0Y-87.15
X183.4Y-80.55
X184.5Y-85.7
X184.5Y-89.7
X184.5Y-91.7
X184.55Y-87.15
X184.65Y-79.35
X184.8Y-71.3
X184.8Y-72.8
X185.0Y-97.7
X185.2Y-74.4
X185.2Y-76.7
X185.2Y-77.9
X185.4Y-80.55
X185.6Y-84.6
X186.5Y-85.7
X186.55Y-87.15
X186.65Y-79.35
X186.75Y-80.6
X186.9Y-89.4
X187.3Y-71.3
X187.3Y-76.7
X187.3Y-77.9
X187.4Y-81.5
X187.4Y-83.8
X188.35Y-90.75
X188.5Y-85.7
X188.55Y-87.15
X188.65Y-79.35
X188.75Y-80.6
X189.8Y-76.7
X189.8Y-77.9
X190.1Y-90.9
X190.5Y-85.7
X190.55Y-87.15
X190.65Y-79.35
X192.3Y-71.3
X192.3Y-72.8
X192.3Y-76.7
X192.3Y-77.9
X192.5Y-85.7
X192.55Y-87.15
X192.65Y-79.35
X192.7Y-88.3
X192.7Y-90.8
X192.7Y-92.3
X192.7Y-94.8
X192.7Y-97.3
T3
X150.0Y-90.725
X150.0Y-91.975
X150.0Y-93.225
X150.0Y-94.475
T5
X157.9Y-95.75
X158.1Y-73.3
X189.3Y-73.7
X189.45Y-95.7
T4
G00X148.425Y-74.38
M15
G01X147.625Y-74.38
M16
G05
G00X148.425Y-83.02
M15
G01X147.625Y-83.02
M16
G05
G00X152.755Y-74.38
M15
G01X151.655Y-74.38
M16
G05
G00X152.755Y-83.02
M15
G01X151.655Y-83.02
M16
G05
M30
