M48
; DRILL file {KiCad 9.0.0} date 2025-08-05T11:44:14+0500
; FORMAT={-:-/ absolute / metric / decimal}
; #@! TF.CreationDate,2025-08-05T11:44:14+05:00
; #@! TF.GenerationSoftware,Kicad,Pcbnew,9.0.0
; #@! TF.FileFunction,Plated,1,2,PTH
FMAT,2
METRIC
; #@! TA.AperFunction,Plated,PTH,ViaDrill
T1C0.300
; #@! TA.AperFunction,Plated,PTH,ComponentDrill
T2C0.550
; #@! TA.AperFunction,Plated,PTH,ComponentDrill
T3C0.800
; #@! TA.AperFunction,Plated,PTH,ComponentDrill
T4C0.850
; #@! TA.AperFunction,Plated,PTH,ComponentDrill
T5C1.000
%
G90
G05
T1
X154.33Y-106.81
X154.79Y-100.97
X154.84Y-99.84
X156.38Y-93.49
X157.51Y-93.51
X158.31Y-98.63
X159.36Y-106.81
X159.49Y-98.63
X160.86Y-90.65
X166.72Y-98.24
X168.18Y-97.04
X168.8Y-88.67
X168.94Y-89.9
X168.99Y-101.26
X170.44Y-98.27
X172.87Y-92.09
X173.0Y-96.71
X173.95Y-94.4
X174.88Y-92.09
X175.06Y-96.73
X176.02Y-94.39
X176.9Y-92.08
X177.08Y-96.71
X177.58Y-101.03
X179.26Y-87.1
X181.17Y-88.62
X181.96Y-98.61
X182.28Y-93.06
X183.26Y-94.08
X183.26Y-97.7
X184.14Y-93.12
X189.59Y-94.93
X189.59Y-96.66
T3
X186.89Y-100.08
X189.43Y-100.08
X191.97Y-100.08
T5
X169.0Y-104.47
X171.27Y-84.66
X171.54Y-104.47
X173.81Y-84.66
X174.08Y-104.47
X176.35Y-84.66
X176.62Y-104.47
X178.89Y-84.66
X180.48Y-104.45
X183.02Y-104.45
X185.56Y-104.45
X188.1Y-104.45
T2
G00X155.465Y-88.33
M15
G01X154.815Y-88.33
M16
G05
G00X155.465Y-96.08
M15
G01X154.815Y-96.08
M16
G05
T4
G00X159.215Y-88.48
M15
G01X158.665Y-88.48
M16
G05
G00X159.215Y-95.93
M15
G01X158.665Y-95.93
M16
G05
M30
