%TF.GenerationSoftware,KiCad,Pcbnew,9.0.0*%
%TF.CreationDate,2025-08-05T11:44:16+05:00*%
%TF.ProjectId,STM32F103CBT6,53544d33-3246-4313-9033-434254362e6b,rev?*%
%TF.SameCoordinates,Original*%
%TF.FileFunction,Paste,Top*%
%TF.FilePolarity,Positive*%
%FSLAX46Y46*%
G04 Gerber Fmt 4.6, Leading zero omitted, Abs format (unit mm)*
G04 Created by KiCad (PCBNEW 9.0.0) date 2025-08-05 11:44:16*
%MOMM*%
%LPD*%
G01*
G04 APERTURE LIST*
G04 Aperture macros list*
%AMRoundRect*
0 Rectangle with rounded corners*
0 $1 Rounding radius*
0 $2 $3 $4 $5 $6 $7 $8 $9 X,Y pos of 4 corners*
0 Add a 4 corners polygon primitive as box body*
4,1,4,$2,$3,$4,$5,$6,$7,$8,$9,$2,$3,0*
0 Add four circle primitives for the rounded corners*
1,1,$1+$1,$2,$3*
1,1,$1+$1,$4,$5*
1,1,$1+$1,$6,$7*
1,1,$1+$1,$8,$9*
0 Add four rect primitives between the rounded corners*
20,1,$1+$1,$2,$3,$4,$5,0*
20,1,$1+$1,$4,$5,$6,$7,0*
20,1,$1+$1,$6,$7,$8,$9,0*
20,1,$1+$1,$8,$9,$2,$3,0*%
G04 Aperture macros list end*
%ADD10RoundRect,0.155000X0.155000X-0.212500X0.155000X0.212500X-0.155000X0.212500X-0.155000X-0.212500X0*%
%ADD11RoundRect,0.160000X0.160000X-0.197500X0.160000X0.197500X-0.160000X0.197500X-0.160000X-0.197500X0*%
%ADD12RoundRect,0.155000X0.212500X0.155000X-0.212500X0.155000X-0.212500X-0.155000X0.212500X-0.155000X0*%
%ADD13RoundRect,0.250000X0.475000X-0.337500X0.475000X0.337500X-0.475000X0.337500X-0.475000X-0.337500X0*%
%ADD14R,1.300000X0.450000*%
%ADD15RoundRect,0.160000X0.197500X0.160000X-0.197500X0.160000X-0.197500X-0.160000X0.197500X-0.160000X0*%
%ADD16RoundRect,0.237500X0.237500X-0.300000X0.237500X0.300000X-0.237500X0.300000X-0.237500X-0.300000X0*%
%ADD17RoundRect,0.155000X-0.212500X-0.155000X0.212500X-0.155000X0.212500X0.155000X-0.212500X0.155000X0*%
%ADD18RoundRect,0.160000X-0.197500X-0.160000X0.197500X-0.160000X0.197500X0.160000X-0.197500X0.160000X0*%
%ADD19RoundRect,0.155000X-0.155000X0.212500X-0.155000X-0.212500X0.155000X-0.212500X0.155000X0.212500X0*%
%ADD20RoundRect,0.090000X0.139000X0.090000X-0.139000X0.090000X-0.139000X-0.090000X0.139000X-0.090000X0*%
%ADD21RoundRect,0.090000X-0.139000X-0.090000X0.139000X-0.090000X0.139000X0.090000X-0.139000X0.090000X0*%
%ADD22RoundRect,0.250000X0.337500X0.475000X-0.337500X0.475000X-0.337500X-0.475000X0.337500X-0.475000X0*%
%ADD23RoundRect,0.075000X0.662500X0.075000X-0.662500X0.075000X-0.662500X-0.075000X0.662500X-0.075000X0*%
%ADD24RoundRect,0.075000X0.075000X0.662500X-0.075000X0.662500X-0.075000X-0.662500X0.075000X-0.662500X0*%
%ADD25R,1.400000X1.200000*%
%ADD26RoundRect,0.375000X-0.625000X-0.375000X0.625000X-0.375000X0.625000X0.375000X-0.625000X0.375000X0*%
%ADD27RoundRect,0.500000X-0.500000X-1.400000X0.500000X-1.400000X0.500000X1.400000X-0.500000X1.400000X0*%
G04 APERTURE END LIST*
D10*
%TO.C,C7*%
X184130000Y-95187500D03*
X184130000Y-94052500D03*
%TD*%
D11*
%TO.C,R3*%
X169860000Y-101227500D03*
X169860000Y-100032500D03*
%TD*%
D12*
%TO.C,C10*%
X178707500Y-100220000D03*
X177572500Y-100220000D03*
%TD*%
D13*
%TO.C,C2*%
X156350000Y-102897500D03*
X156350000Y-100822500D03*
%TD*%
D14*
%TO.C,J4*%
X158990000Y-90905000D03*
X158990000Y-91555000D03*
X158990000Y-92205000D03*
X158990000Y-92855000D03*
X158990000Y-93505000D03*
%TD*%
D15*
%TO.C,R1*%
X175647500Y-87310000D03*
X174452500Y-87310000D03*
%TD*%
D16*
%TO.C,C11*%
X179810000Y-90072500D03*
X179810000Y-88347500D03*
%TD*%
D17*
%TO.C,C5*%
X181202500Y-94110000D03*
X182337500Y-94110000D03*
%TD*%
D18*
%TO.C,R2*%
X172092500Y-87310000D03*
X173287500Y-87310000D03*
%TD*%
D19*
%TO.C,C4*%
X169820000Y-88742500D03*
X169820000Y-89877500D03*
%TD*%
D11*
%TO.C,R4*%
X176290000Y-101325000D03*
X176290000Y-100130000D03*
%TD*%
D20*
%TO.C,D1*%
X168572500Y-99930000D03*
X167707500Y-99930000D03*
%TD*%
D21*
%TO.C,FB1*%
X181267500Y-90510000D03*
X182132500Y-90510000D03*
%TD*%
D22*
%TO.C,C1*%
X156647500Y-105240000D03*
X154572500Y-105240000D03*
%TD*%
D23*
%TO.C,U2*%
X179202500Y-97100000D03*
X179202500Y-96600000D03*
X179202500Y-96100000D03*
X179202500Y-95600000D03*
X179202500Y-95100000D03*
X179202500Y-94600000D03*
X179202500Y-94100000D03*
X179202500Y-93600000D03*
X179202500Y-93100000D03*
X179202500Y-92600000D03*
X179202500Y-92100000D03*
X179202500Y-91600000D03*
D24*
X177790000Y-90187500D03*
X177290000Y-90187500D03*
X176790000Y-90187500D03*
X176290000Y-90187500D03*
X175790000Y-90187500D03*
X175290000Y-90187500D03*
X174790000Y-90187500D03*
X174290000Y-90187500D03*
X173790000Y-90187500D03*
X173290000Y-90187500D03*
X172790000Y-90187500D03*
X172290000Y-90187500D03*
D23*
X170877500Y-91600000D03*
X170877500Y-92100000D03*
X170877500Y-92600000D03*
X170877500Y-93100000D03*
X170877500Y-93600000D03*
X170877500Y-94100000D03*
X170877500Y-94600000D03*
X170877500Y-95100000D03*
X170877500Y-95600000D03*
X170877500Y-96100000D03*
X170877500Y-96600000D03*
X170877500Y-97100000D03*
D24*
X172290000Y-98512500D03*
X172790000Y-98512500D03*
X173290000Y-98512500D03*
X173790000Y-98512500D03*
X174290000Y-98512500D03*
X174790000Y-98512500D03*
X175290000Y-98512500D03*
X175790000Y-98512500D03*
X176290000Y-98512500D03*
X176790000Y-98512500D03*
X177290000Y-98512500D03*
X177790000Y-98512500D03*
%TD*%
D19*
%TO.C,C12*%
X181370000Y-91812500D03*
X181370000Y-92947500D03*
%TD*%
D10*
%TO.C,C6*%
X169090000Y-98197500D03*
X169090000Y-97062500D03*
%TD*%
D17*
%TO.C,C8*%
X171245000Y-88530000D03*
X172380000Y-88530000D03*
%TD*%
D12*
%TO.C,C13*%
X182417500Y-89520000D03*
X181282500Y-89520000D03*
%TD*%
D25*
%TO.C,Y1*%
X185960000Y-96710000D03*
X188160000Y-96710000D03*
X188160000Y-95010000D03*
X185960000Y-95010000D03*
%TD*%
D19*
%TO.C,C9*%
X181070000Y-97372500D03*
X181070000Y-98507500D03*
%TD*%
D11*
%TO.C,R5*%
X165550000Y-97207500D03*
X165550000Y-96012500D03*
%TD*%
D19*
%TO.C,C3*%
X184150000Y-96482500D03*
X184150000Y-97617500D03*
%TD*%
D26*
%TO.C,U1*%
X159320000Y-100447500D03*
X159320000Y-102747500D03*
D27*
X165620000Y-102747500D03*
D26*
X159320000Y-105047500D03*
%TD*%
M02*
