M48
; DRILL file KiCad 10.0.0 date 2026-03-25T22:38:20
; FORMAT={-:-/ absolute / metric / decimal}
; #@! TF.CreationDate,2026-03-25T22:38:20+05:00
; #@! TF.GenerationSoftware,Kicad,Pcbnew,10.0.0
; #@! TF.FileFunction,Plated,1,4,PTH
FMAT,2
METRIC
; #@! TA.AperFunction,Plated,PTH,ComponentDrill
T1C0.200
; #@! TA.AperFunction,Plated,PTH,ViaDrill
T2C0.300
; #@! TA.AperFunction,Plated,PTH,ComponentDrill
T3C0.750
; #@! TA.AperFunction,Plated,PTH,ComponentDrill
T4C0.800
; #@! TA.AperFunction,Plated,PTH,ComponentDrill
T5C1.000
; #@! TA.AperFunction,Plated,PTH,ComponentDrill
T6C1.100
; #@! TA.AperFunction,Plated,PTH,ComponentDrill
T7C1.300
; #@! TA.AperFunction,Plated,PTH,ComponentDrill
T8C1.500
; #@! TA.AperFunction,Plated,PTH,ComponentDrill
T9C1.600
%
G90
G05
T1
X187.41Y-97.55
X187.41Y-98.65
X187.96Y-97.0
X187.96Y-98.1
X187.96Y-99.2
X188.51Y-97.55
X188.51Y-98.65
X189.06Y-97.0
X189.06Y-98.1
X189.06Y-99.2
X189.61Y-97.55
X189.61Y-98.65
T2
X144.075Y-122.375
X144.85Y-140.6
X144.975Y-145.975
X145.075Y-136.4
X146.05Y-118.55
X146.425Y-110.2
X148.35Y-99.375
X148.575Y-135.825
X149.35Y-122.55
X150.375Y-131.825
X151.125Y-96.95
X151.125Y-96.95
X151.15Y-103.05
X151.35Y-81.925
X152.525Y-120.525
X152.95Y-138.725
X153.325Y-116.0
X153.9Y-99.375
X154.55Y-103.075
X155.125Y-140.325
X155.225Y-124.1
X156.303Y-128.407
X157.175Y-117.4
X157.2Y-102.8
X157.2Y-114.375
X158.225Y-134.925
X158.275Y-121.675
X158.775Y-97.925
X159.85Y-115.3
X160.225Y-131.475
X161.125Y-98.075
X161.45Y-131.55
X162.275Y-125.05
X162.825Y-106.7
X163.4Y-118.8
X163.625Y-128.1
X164.05Y-92.985
X164.375Y-125.825
X165.25Y-89.225
X165.725Y-105.7
X165.775Y-109.15
X165.9Y-97.65
X166.525Y-102.825
X166.725Y-92.925
X167.15Y-103.65
X168.8Y-105.975
X169.475Y-90.45
X170.7Y-108.225
X170.975Y-101.85
X172.3Y-97.6
X172.65Y-80.0
X172.65Y-82.0
X172.65Y-84.0
X172.65Y-86.0
X172.65Y-88.0
X172.65Y-90.0
X172.975Y-94.375
X174.0Y-94.8
X174.5Y-91.85
X175.35Y-100.15
X175.425Y-103.025
X175.675Y-98.425
X175.739Y-93.014
X175.8Y-104.15
X177.35Y-103.925
X177.575Y-109.525
X180.05Y-101.0
X180.15Y-96.325
X180.15Y-97.925
X180.275Y-91.675
X180.275Y-94.9
X180.875Y-108.925
X181.075Y-106.2
X182.275Y-91.675
X183.075Y-111.025
X184.275Y-91.675
X185.25Y-108.775
X185.575Y-110.425
X186.275Y-91.675
X188.275Y-91.675
X189.3Y-105.525
X190.275Y-91.675
X192.275Y-91.675
X192.475Y-105.85
X194.275Y-91.675
X195.6Y-106.5
X198.075Y-106.375
X198.15Y-109.575
X198.275Y-91.675
X198.35Y-99.725
X200.275Y-91.675
X202.275Y-91.675
X202.65Y-79.975
X202.65Y-81.975
X202.65Y-83.975
X202.65Y-85.975
X202.65Y-87.975
X202.65Y-89.975
X202.85Y-107.125
X205.05Y-118.65
X205.05Y-120.65
X205.05Y-122.65
X205.05Y-124.65
X205.05Y-126.65
X205.05Y-128.65
X205.275Y-131.825
X205.275Y-133.825
X205.275Y-135.825
X205.275Y-137.825
X205.275Y-139.825
X205.275Y-141.825
T3
X156.715Y-132.43
X156.715Y-133.7
X156.715Y-134.97
X158.74Y-125.855
X158.74Y-127.125
X158.74Y-128.395
T4
X146.025Y-117.0
X148.525Y-117.0
X160.85Y-106.757
X160.85Y-109.257
X163.75Y-85.722
X163.75Y-89.222
T5
X204.55Y-107.205
X204.55Y-109.745
X204.55Y-112.285
X204.55Y-114.825
X204.625Y-95.17
X204.625Y-97.71
X204.625Y-100.25
X204.625Y-102.79
T6
X186.025Y-120.6
X196.225Y-120.6
T7
X147.8Y-126.775
X147.8Y-131.855
X150.025Y-142.4
X155.105Y-142.4
X162.575Y-142.35
X167.575Y-142.35
X172.575Y-142.35
T8
X171.125Y-116.025
X171.125Y-131.025
T9
X182.225Y-135.8
X182.225Y-143.4
X191.125Y-118.06
X200.025Y-133.26
T5
G00X151.35Y-83.65
M15
G01X151.35Y-85.65
M16
G05
G00X153.35Y-89.35
M15
G01X155.35Y-89.35
M16
G05
G00X157.35Y-83.65
M15
G01X157.35Y-85.65
M16
G05
M30
